<?xml version="1.0" encoding="utf-8"?>
<!-- Generator: Adobe Illustrator 22.1.0, SVG Export Plug-In . SVG Version: 6.00 Build 0)  -->
<svg version="1.1" id="Calque_1" xmlns="http://www.w3.org/2000/svg" xmlns:xlink="http://www.w3.org/1999/xlink" x="0px" y="0px"
	 viewBox="0 0 364 110.2" style="enable-background:new 0 0 364 110.2;" xml:space="preserve">
<style type="text/css">
	.st0{fill:#FFFFFF;}
	.st1{fill:#0072B8;}
	.st2{clip-path:url(#SVGID_1_);fill:#0072B8;}
	.st3{clip-path:url(#SVGID_1_);}
	.st4{clip-path:url(#SVGID_2_);}
	.st5{fill:#FFFFFF;stroke:#FFFFFF;stroke-width:2.1835;}
</style>
<g>
	<path class="st0" d="M264.5,62.9h3.3c-0.5,1.1-1.4,2-2.8,2.5c-1.4,0.6-3.1,0.9-5.1,0.9c-2.5,0-4.5-0.5-5.9-1.5
		c-1.4-1-2.1-2.3-2.1-4.1c0-1.7,0.7-3,2-4c1.4-1,3.4-1.5,5.9-1.5c2.6,0,4.7,0.5,6.1,1.4c0.8,0.6,1.4,1.3,1.7,2h-4.6
		c-0.2-0.3-0.4-0.5-0.7-0.6c-0.6-0.4-1.4-0.6-2.4-0.6c-1,0-1.8,0.2-2.4,0.6c-0.8,0.5-1.2,1.4-1.2,2.6c0,1.2,0.4,2.1,1.2,2.6
		c0.6,0.4,1.4,0.6,2.6,0.6c0.7,0,1.4-0.1,1.9-0.3c0.1,0,0.3-0.1,0.4-0.1c0.1-0.1,0.2-0.1,0.4-0.2c0.1-0.1,0.3-0.2,0.5-0.3
		C263.6,63,264,62.9,264.5,62.9z"/>
	<path class="st0" d="M280.6,65.8c-0.9,0.3-1.9,0.5-2.9,0.5c-1,0.1-1.9,0.1-2.7,0.1c-1.6,0-3-0.3-4.1-0.8c-1.2-0.5-1.8-1.4-1.8-2.6
		c0-1.1,0.5-1.9,1.6-2.4c1.1-0.5,2.4-0.8,4.1-1c0.2,0,0.5,0,0.8-0.1c0.3,0,0.7-0.1,1.1-0.1c1.9-0.2,2.9-0.5,2.9-1
		c0-0.4-0.3-0.7-1-0.8c-0.7-0.1-1.3-0.2-1.9-0.2c-0.6,0-1.2,0.1-1.6,0.2c-0.5,0.1-0.8,0.3-1.1,0.6h-4.4c0.2-0.8,0.8-1.5,1.8-2
		c1.2-0.6,2.9-0.9,5.1-0.9c2.5,0,4.3,0.3,5.5,0.8c1.3,0.5,1.9,1.3,1.9,2.2V62c0,1.1-0.3,1.9-1,2.5C282.3,65.1,281.5,65.5,280.6,65.8
		z M279.6,60.9c-0.6,0.2-1.5,0.4-2.6,0.5l-1.5,0.2c-0.8,0.1-1.4,0.3-1.7,0.5c-0.3,0.3-0.5,0.6-0.5,0.9c0,0.4,0.2,0.7,0.6,1
		c0.4,0.2,1,0.3,1.7,0.3c1.2,0,2.2-0.2,2.9-0.6c0.7-0.4,1.1-1,1.1-1.8V60.9z"/>
	<path class="st0" d="M300.7,66.2h-4.5V60v-0.6c0-0.6-0.3-1.1-1-1.4c-0.6-0.3-1.3-0.4-2.1-0.4c-0.8,0-1.5,0.1-2.1,0.4
		c-0.6,0.3-0.9,0.8-0.9,1.4v6.8h-4.6V60c0-1.8,0.8-3,2.3-3.6c1.6-0.6,3.3-0.9,5.2-1c1,0,2,0.1,3,0.2c1,0.1,1.8,0.4,2.6,0.8
		c0.7-0.3,1.4-0.6,2.3-0.7c0.9-0.1,1.8-0.2,2.8-0.3c1.9,0,3.7,0.3,5.3,0.9c1.6,0.6,2.4,1.8,2.4,3.7v6.2h-2.3c-0.7,0-1.2-0.1-1.6-0.4
		c-0.4-0.3-0.6-0.6-0.6-1v-5.4c0-0.6-0.3-1.1-1-1.4c-0.6-0.3-1.3-0.4-2.1-0.4c-0.8,0-1.5,0.1-2.1,0.4c-0.6,0.3-1,0.8-1,1.4V60V66.2z
		"/>
	<path class="st0" d="M318.1,68.8c0,0.4-0.2,0.7-0.7,1c-0.4,0.3-1,0.4-1.6,0.4h-2.2v-9.9c0-1.9,0.9-3.1,2.7-3.8c1.8-0.7,3.8-1,5.9-1
		c1.1,0,2.2,0.1,3.3,0.4c1.1,0.3,2,0.6,2.7,1.1c1.3,1,2,2.4,2,4c0,1.7-0.7,3-2,4.1c-1.3,1-3,1.5-5.1,1.5c-1.1,0-2.1-0.1-2.9-0.4
		c-0.9-0.3-1.6-0.7-2.1-1.2V68.8z M325.6,61c0-1-0.3-1.8-1-2.4c-0.7-0.6-1.6-0.8-2.8-0.8c-1.2,0-2.1,0.3-2.8,0.8
		c-0.6,0.5-0.9,1.3-0.9,2.4c0,1,0.3,1.8,1,2.3c0.7,0.6,1.6,0.8,2.8,0.8c1.1,0,2-0.3,2.7-0.8C325.3,62.7,325.6,61.9,325.6,61z"/>
	<path class="st0" d="M347.2,55.6v6.2c0,1.9-0.8,3.1-2.4,3.7c-1.6,0.6-3.4,0.9-5.3,0.9c-1.9-0.1-3.6-0.4-5.2-1
		c-1.6-0.6-2.3-1.8-2.3-3.6v-6.2h4.6v6.8c0,0.6,0.3,1.1,0.9,1.4c0.6,0.3,1.3,0.4,2.1,0.4c0.8,0,1.5-0.1,2.1-0.4c0.6-0.3,1-0.8,1-1.4
		V57c0-0.4,0.2-0.7,0.6-1c0.4-0.3,1-0.4,1.6-0.4H347.2z"/>
	<path class="st0" d="M348.4,62.7h4.5c0,0.5,0.4,0.9,1,1.2c0.7,0.3,1.5,0.4,2.6,0.4c0.8,0,1.5-0.1,2-0.3c0.5-0.2,0.8-0.4,0.8-0.8
		c0-0.5-0.9-0.8-2.8-1.1c-0.8-0.1-1.4-0.2-1.8-0.2c-2.3-0.3-3.9-0.8-4.7-1.2c-0.9-0.5-1.3-1.1-1.3-1.9c0-1,0.6-1.8,1.9-2.5
		c1.3-0.6,3-0.9,5.1-0.9c2.3,0,4.1,0.3,5.5,0.9c1.3,0.7,2,1.5,2,2.6h-2.8c-0.8,0-1.5-0.2-1.9-0.7c-0.2-0.1-0.4-0.2-0.5-0.3
		c-0.5-0.2-1.3-0.4-2.2-0.4c-0.9,0-1.5,0.1-2,0.2c-0.4,0.2-0.6,0.4-0.6,0.7c0,0.4,1.1,0.8,3.4,1.1c0.3,0.1,0.5,0.1,0.7,0.1
		c0.2,0,0.4,0,0.6,0c2.2,0.3,3.8,0.7,4.7,1.2c0.8,0.5,1.2,1.1,1.2,1.9c0,1.2-0.7,2.1-2.1,2.7c-1.3,0.6-3.3,0.9-5.9,0.9
		c-2.5,0-4.4-0.3-5.6-0.9c-1.3-0.6-1.9-1.5-1.9-2.7V62.7z"/>
</g>
<g>
	<g>
		<g>
			<path class="st1" d="M62.7,13.5c1.7-4.1,4.8-7.7,9.2-8.9c8-2.1,13.2,5.3,10.6,12.6c-1.5,4.3-5.2,8-9.7,9
				c-8.1,1.7-12.1-5.9-10-12.9c0.2-0.8-1.3-2.2-1.6-1.1c-1.8,5.9,0,13,6.2,15.5c7,2.8,14.5-2.5,16.8-9.1c2-5.7,0.1-12.7-5.6-15.3
				C71.2,0,63.8,5.4,61.1,12C60.8,12.8,62.3,14.3,62.7,13.5z"/>
		</g>
	</g>
	<g>
		<g>
			<path class="st1" d="M43.6,106c-9.9-4.1-2.3-22.8,0.2-29.4C48.8,63.8,56.1,51,66,41.4c4-3.9,14.1-12.5,18.7-4.8
				c2.7,4.6,1.3,10.8,0.2,15.6c-1.8,7.5-4.7,14.6-8.2,21.4c-0.3,0.6,0.3,1.6,0,2.2c5-10.1,9.5-21.2,9.5-32.6
				c0-5.1-0.9-12.5-7.7-11.7c-9.7,1.2-18,13.3-23,20.6c-7.9,11.6-14.8,25.6-16.4,39.8c-0.6,5.2-1.3,14.1,4.4,16.4
				C43.4,108.1,43.9,106.1,43.6,106L43.6,106z"/>
		</g>
	</g>
	<g>
		<g>
			<path class="st1" d="M45.8,52.9C37,49.2,28.3,45,20.4,39.5C16.7,36.9,10,32.6,9.9,27.5c0,0.7,0,1.4,0,2.1c0.6-5,9.2-4.2,12.6-3.9
				c10.3,0.9,20.5,4.1,30.2,7.7c9.8,3.7,19.5,8.2,28.3,14C85.1,50.1,93,55,93.2,60.7c0-0.7,0-1.4,0-2.1c-0.7,5.6-10.9,4.1-14.5,3.7
				C67.4,60.9,56.3,57.1,45.8,52.9c0.2,0.1-0.3,2.1,0,2.2c9.3,3.7,18.9,7,28.7,8.7c4.5,0.8,13.4,2.8,17.4-0.7
				c5.6-4.9-4.4-13.1-7.6-15.5C69.1,36.3,49.8,28.8,31.5,24.9c-5-1-22.3-5.2-21.6,4.4c0.3,4.6,4.5,7.9,7.9,10.5
				c8.4,6.5,18.2,11.2,28,15.2C45.6,55,46.1,53,45.8,52.9z"/>
		</g>
	</g>
	<g>
		<g>
			<path class="st1" d="M56.3,10.7c1.7-4.2,4.9-7.8,9.4-9c4-1.1,9.1,1.1,10.4,5.2c0.8,2.5,0.6,5.4-0.2,7.9c-1.4,4-4.7,7.5-8.8,8.9
				C58.6,26.4,54.2,17.8,56.3,10.7c0.2-0.5-1.8-1.4-1.9-1.1c-1.8,6.2,0.2,12.6,6.5,15c7,2.8,14.5-2.1,16.8-8.7
				c2.1-6-0.4-12.5-6.3-15c-7.2-3-14.3,2.1-17,8.7C54.3,10,56.2,11,56.3,10.7z"/>
		</g>
	</g>
	<g>
		<g>
			<path class="st1" d="M71.3,73.2C65.7,84,58.3,96.5,47.6,103c-2.7,1.6-6.4,3.3-9.4,1.3c-4.2-2.8-3.2-9.7-2.5-13.7
				c2.6-14.4,9.8-28.6,18.5-40.2c3.9-5.2,14.1-19,22.3-15.6c5.1,2.2,4.2,10,3.4,14.2C78.5,57.5,75.1,65.6,71.3,73.2
				c-0.3,0.6,0.3,1.6,0,2.2c5.3-10.6,10-22.4,9.3-34.4c-0.2-3.8-1.4-8.5-6-8.8c-5.2-0.3-10.5,4.8-13.8,8.2
				C48.8,52.7,39.4,70.1,36,87c-1,5.1-3.2,18.2,3.8,20.2c5.3,1.5,11.3-4.2,14.6-7.5c7-7,12.4-15.5,17-24.3
				C71.6,74.8,71,73.8,71.3,73.2z"/>
		</g>
	</g>
	<g>
		<g>
			<path class="st1" d="M40.9,54.8c-8.8-3.7-17.6-7.9-25.4-13.4C11.8,38.9,5.1,34.6,5,29.4c0,0.7,0,1.4,0,2.1
				c0.6-5,9.2-4.2,12.6-3.9c10.3,0.9,20.5,4.1,30.2,7.7c9.8,3.7,19.5,8.2,28.3,14c4.1,2.7,12.1,7.5,12.2,13.2c0-0.7,0-1.4,0-2.1
				c-0.7,5.6-10.9,4.1-14.5,3.7C62.5,62.8,51.4,59.1,40.9,54.8c0.2,0.1-0.3,2.1,0,2.2c9.3,3.7,18.9,7,28.7,8.7
				C74.1,66.5,83,68.5,87,65c5.6-4.9-4.4-13.1-7.6-15.5C64.2,38.3,44.9,30.7,26.6,26.9c-5-1-22.3-5.2-21.6,4.4
				c0.3,4.6,4.5,7.9,7.9,10.5c8.4,6.5,18.2,11.2,28,15.2C40.7,56.9,41.2,54.9,40.9,54.8z"/>
		</g>
	</g>
	<g>
		<g>
			<path class="st1" d="M59.8,12.9c1.8-4.4,5.3-8.2,10.1-9.2c8-1.7,12.3,5.7,10,12.7c-1.5,4.4-5.5,8.2-10.1,9.2
				C61.6,27.4,57.7,19.9,59.8,12.9c0.2-0.5-1.4-1.5-1.4-1.7c-1.6,5.2-0.3,10.5,3.9,14.1c6.8,5.6,16.3,0.1,18.9-7.2
				c1.7-4.9,0.3-10.2-3.5-13.7c-6.9-6.3-16.3-0.6-19.3,6.8C58.2,11.6,59.8,12.7,59.8,12.9z"/>
		</g>
	</g>
	<g>
		<g>
			<path class="st1" d="M75.4,76c-5.6,10.8-13,23.3-23.7,29.8c-2.7,1.6-6.4,3.3-9.4,1.3c-4.2-2.8-3.2-9.7-2.5-13.7
				c2.6-14.4,9.8-28.6,18.5-40.2c3.9-5.2,14.1-19,22.3-15.6c5.1,2.2,4.2,10,3.4,14.2C82.5,60.2,79.2,68.3,75.4,76
				c-0.3,0.6,0.3,1.6,0,2.2c5.3-10.6,10-22.4,9.3-34.4c-0.2-3.8-1.4-8.5-6-8.8c-5.2-0.3-10.5,4.8-13.8,8.2
				C52.8,55.4,43.5,72.9,40,89.8c-1,5.1-3.2,18.2,3.8,20.2c5.3,1.5,11.3-4.2,14.6-7.5c7-7,12.4-15.5,17-24.3
				C75.7,77.6,75.1,76.6,75.4,76z"/>
		</g>
	</g>
	<g>
		<g>
			<path class="st1" d="M35.9,55c-8.8-3.7-17.6-7.9-25.4-13.4C6.8,39.1,0.2,34.7,0,29.6c0,0.7,0,1.4,0,2.1c0.6-5,9.2-4.2,12.6-3.9
				c10.3,0.9,20.5,4.1,30.2,7.7c9.8,3.7,19.5,8.2,28.3,14c4.1,2.7,12.1,7.5,12.2,13.2c0-0.7,0-1.4,0-2.1c-0.7,5.6-10.9,4.1-14.5,3.7
				C57.5,63,46.5,59.2,35.9,55c0.2,0.1-0.3,2.1,0,2.2c9.3,3.7,18.9,7,28.7,8.7c4.5,0.8,13.4,2.8,17.4-0.7c5.6-4.9-4.4-13.1-7.6-15.5
				C59.3,38.4,40,30.9,21.6,27c-5-1-22.3-5.2-21.6,4.4C0.4,36,4.6,39.3,8,41.9c8.4,6.5,18.2,11.2,28,15.2
				C35.7,57.1,36.2,55.1,35.9,55z"/>
		</g>
	</g>
	<g>
		<g>
			<path class="st1" d="M57.4,13.3c1.8-4.5,5.4-8.3,10.3-9.4c8.1-1.7,12.9,6.4,10.4,13.5c-1.5,4.4-5.2,8-9.7,9.2
				c-4.1,1.1-8.2-0.2-10.6-3.9C56,20,56.5,16.1,57.4,13.3c0.2-0.7-1.4-2.1-1.7-1.3c-1.8,5.9-0.2,12.6,5.6,15.6
				c7.4,3.7,15.8-1.7,18.4-8.8c2.1-5.8,0.1-12.6-5.5-15.5C66.7-0.8,58.6,4.9,55.7,12C55.5,12.6,57.1,14.1,57.4,13.3z"/>
		</g>
	</g>
	<g>
		<g>
			<path class="st1" d="M68.5,72.4c-5.6,10.8-13,23.3-23.7,29.8c-2.7,1.6-6.4,3.3-9.4,1.3c-4.2-2.8-3.2-9.7-2.5-13.7
				c2.6-14.4,9.8-28.6,18.5-40.2c3.9-5.2,14.1-19,22.3-15.6c5.1,2.2,4.2,10,3.4,14.2C75.7,56.6,72.4,64.7,68.5,72.4
				c-0.3,0.6,0.3,1.6,0,2.2c5.3-10.6,10-22.4,9.3-34.4c-0.2-3.8-1.4-8.5-6-8.8c-5.2-0.3-10.5,4.8-13.8,8.2
				C46,51.8,36.7,69.3,33.2,86.2c-1,5.1-3.2,18.2,3.8,20.2c5.3,1.5,11.3-4.2,14.6-7.5c7-7,12.4-15.5,17-24.3
				C68.8,74,68.3,73,68.5,72.4z"/>
		</g>
	</g>
	<g>
		<g>
			<path class="st1" d="M41.4,49.5c-9.2-3.8-18.2-8.2-26.4-13.8c-3.8-2.6-10.8-7-10.9-12.3c0,0.7,0,1.4,0,2.1
				c0.6-5.1,9.7-4,13.1-3.7c10.4,1,20.6,4.3,30.3,7.9c10.2,3.9,20.3,8.5,29.5,14.4C81.3,46.9,90.1,52,90.3,58c0-0.7,0-1.4,0-2.1
				c-0.7,5.6-11.5,3.9-15,3.5C63.6,57.8,52.3,53.9,41.4,49.5c0.2,0.1-0.3,2.1,0,2.2c9.6,3.9,19.6,7.3,29.8,9.2
				c4.7,0.9,13,2.8,17.3-0.2c6.4-4.5-4-13.2-7.1-15.6C65.8,33.3,45.7,25.4,26.8,21.2c-4.9-1.1-23.4-5.8-22.7,3.9
				c0.4,4.9,5.2,8.4,8.8,11.1c8.7,6.5,18.6,11.2,28.5,15.4C41.2,51.6,41.7,49.6,41.4,49.5z"/>
		</g>
	</g>
</g>
<g>
	<defs>
		<path id="SVGID_5_" d="M108.7,53.9c0,28.2-22.9,51.1-51.1,51.1C29.4,105,6.5,82.2,6.5,53.9c0-28.2,22.9-51.1,51.1-51.1
			C85.9,2.8,108.7,25.7,108.7,53.9z"/>
	</defs>
	<clipPath id="SVGID_1_">
		<use xlink:href="#SVGID_5_"  style="overflow:visible;"/>
	</clipPath>
	<path class="st2" d="M108.5,53.9c0,28.2-22.9,51.1-51.1,51.1C29.2,105,6.3,82.2,6.3,53.9c0-28.2,22.9-51.1,51.1-51.1
		C85.6,2.8,108.5,25.7,108.5,53.9z"/>
	<g class="st3">
		<g>
			<path class="st0" d="M62.9,13.1C64.6,9,67.6,5.7,72,4.5c7.2-2,11.2,4.9,9,11.2c-1.3,3.8-4.6,7.2-8.5,8.5
				c-3.3,1.1-6.4,0.6-8.5-2.1C61.8,19.2,61.9,16.5,62.9,13.1c0.4-1.4-2.9-4.2-3.3-2.6c-2,6.7,0.5,14.1,7.3,16.9
				c7.2,2.9,15-2.2,17.5-9.1c2.3-6.5-0.6-14.1-7.1-16.8c-7.5-3.2-14.9,2.1-17.7,9C59,11.9,62.3,14.7,62.9,13.1z"/>
		</g>
	</g>
	<g class="st3">
		<g>
			<path class="st0" d="M76,70.5c-5.8,11.1-13.6,24.2-24.8,30.7c-2.9,1.6-6.8,3.2-9.8,0.9c-1.3-1-2.1-2.6-2.6-4.2
				c-0.4-1.2-0.5-2.5-0.6-3.8c0.1,3.7,0.5-1.2,0.7-2.3c2.7-14.7,10.2-29.1,19.2-41c4.1-5.3,14.6-19.2,23-15.6c1.8,0.7,2.8,2.3,3.5,4
				c0.4,1.2,0.5,2.4,0.7,3.6c0.5,2.9,0.6-2.1-0.1-0.1c-0.3,0.8-0.2,1.9-0.4,2.7C83.4,54.2,80,62.6,76,70.5c-0.9,1.8,0.9,4.8,0,6.6
				c6.2-12.5,10.4-25.5,9.5-39.5c-0.2-4.1-1.6-9.2-6.6-9.3c-5.2-0.1-10.1,4.5-13.6,7.8C52.5,48.6,42.7,66.9,39.2,84.5
				c-1.2,5.8-3.8,22.7,4.1,25c5.5,1.6,11.7-4.2,15.2-7.6C65.8,94.8,71.4,86,76,77C76.9,75.3,75.2,72.2,76,70.5z"/>
		</g>
	</g>
	<g class="st3">
		<g>
			<path class="st0" d="M45.2,50.9c-8.8-3.7-17.6-7.9-25.4-13.4c-3.7-2.6-10.4-6.9-10.5-12c0,1.4,0,2.9,0,4.3
				c0.6-5,9.2-4.2,12.6-3.9c10.3,0.9,20.5,4.1,30.2,7.7c9.8,3.7,19.5,8.2,28.3,14c4,2.7,12.1,7.5,12.2,13.2c0-1.4,0-2.9,0-4.3
				C91.9,62,81.6,60.6,78,60.2C66.7,58.8,55.7,55.1,45.2,50.9c0.5,0.2-0.5,4.2,0,4.4c9.3,3.7,18.9,7,28.7,8.7
				c4.5,0.8,13.4,2.8,17.4-0.7c1.8-1.6,1.6-4.7,1.3-6.9c-0.6-4.7-5.4-8.2-8.9-10.8C68.5,34.3,49.2,26.7,30.8,22.9
				c-5.5-1.1-13.6-3.1-19-0.6c-3,1.4-2.8,4-2.6,6.9c0.3,4.8,4.4,8.1,8,10.9c8.4,6.5,18.2,11.2,28,15.2C44.7,55,45.7,51.1,45.2,50.9z
				"/>
		</g>
	</g>
	<g class="st3">
		<g>
			<path class="st0" d="M55,9.1c2.7-6.6,11.1-12.2,17.6-7.3c3.9,2.9,4.8,8.2,3.2,12.7c-2.3,6.4-10.1,11.5-16.7,8
				C54.3,19.8,53.6,13.9,55,9.1c0.1-0.3-0.5,0-0.6,0.2c-2.1,7,1.3,15.2,9.6,14.8c5.6-0.3,10.6-4.6,12.4-9.8c2.4-6.7-1.2-14.8-9-14.8
				c-6,0-10.8,4.5-13,9.8C54.4,9.5,55,9.2,55,9.1z"/>
		</g>
	</g>
	<g class="st3">
		<g>
			<path class="st0" d="M70.7,73c-5.6,10.8-13,23.3-23.7,29.8c-2.7,1.6-6.4,3.3-9.4,1.3c-4.5-3-3.3-10.9-2.5-15.2
				c2.6-14.4,9.8-28.6,18.5-40.2c3.9-5.2,14.1-19,22.3-15.6c5.5,2.3,4.2,11.3,3.4,15.7C77.8,57.3,74.5,65.4,70.7,73
				c-0.1,0.2,0.1,0.5,0,0.7c5-10,9.9-21.5,9.3-32.9c-0.2-3.8-1.4-8.5-6-8.7c-5.2-0.3-10.5,4.8-13.8,8.2
				C48.1,52.5,38.8,69.9,35.3,86.8c-1,4.9-3,16.7,3.8,18.7c5.3,1.5,11.3-4.2,14.6-7.5c7-7,12.4-15.5,17-24.3
				C70.8,73.5,70.6,73.2,70.7,73z"/>
		</g>
	</g>
	<g class="st3">
		<g>
			<path class="st0" d="M40.3,54.6c-7.6-3.1-15-6.7-21.9-11.1c-4.4-2.8-9.4-6-12.5-10.4c-6.7-9.8,13.8-7,17.9-6.2
				c16.5,3,33,9.6,47.4,18.1c3,1.8,22.5,13.4,14.5,18.1c-4.6,2.8-12.5,1-17.3,0.1C58.6,61.4,49.3,58.3,40.3,54.6
				c0.1,0-0.1,0.7,0,0.7c9.3,3.7,18.9,7,28.7,8.7c4.5,0.8,13.4,2.8,17.4-0.7c5.1-4.5-4.7-11.8-7.6-14C63.6,38.1,44.3,30.5,25.9,26.7
				c-4-0.8-21.5-4.9-21.6,3.1c-0.1,4.3,4.9,8,7.9,10.3c8.4,6.5,18.2,11.2,28,15.2C40.2,55.3,40.3,54.7,40.3,54.6z"/>
		</g>
	</g>
	<g class="st3">
		<g>
			<path class="st0" d="M58.7,11.3c1.7-4.3,4.9-7.8,9.4-9C76.3,0,82.2,8.6,79.6,16.1c-1.4,4-4.8,7.5-8.8,8.8
				c-1.1,0.4-2.4,0.6-3.5,0.6c-3.3-0.1-4.7-1.3-6.7-3.8C57.7,18.2,57.4,15.5,58.7,11.3c0.1-0.2-0.5-0.7-0.5-0.4
				c-1.6,5.5-0.3,12.2,5.6,14.5c6.8,2.6,14.1-2.5,16.3-8.9C82.1,11,80.2,4.3,74.5,2c-7-2.7-13.8,2.6-16.4,8.9
				C58.1,11.1,58.6,11.5,58.7,11.3z"/>
		</g>
	</g>
	<g class="st3">
		<g>
			<path class="st0" d="M74.7,75.8c-5.6,10.8-13,23.3-23.7,29.8c-2.7,1.6-6.4,3.3-9.4,1.3c-4.5-3-3.3-10.9-2.5-15.2
				c2.6-14.4,9.8-28.6,18.5-40.2c3.9-5.2,14.1-19,22.3-15.6c5.5,2.3,4.2,11.3,3.4,15.7C81.9,60,78.5,68.1,74.7,75.8
				c-0.1,0.2,0.1,0.5,0,0.7c5-10,9.9-21.5,9.3-32.9c-0.2-3.8-1.4-8.5-6-8.7c-5.2-0.3-10.5,4.8-13.8,8.2
				C52.2,55.2,42.8,72.7,39.4,89.6c-1,4.9-3,16.7,3.8,18.7c5.3,1.5,11.3-4.2,14.6-7.5c7-7,12.4-15.5,17-24.3
				C74.8,76.3,74.6,76,74.7,75.8z"/>
		</g>
	</g>
	<g class="st3">
		<g>
			<path class="st0" d="M35.3,54.8c-7.6-3.1-15-6.7-21.9-11.1c-4.4-2.8-9.4-6-12.5-10.4c-6.7-9.8,13.8-7,17.9-6.2
				c16.5,3,33,9.6,47.4,18.1c3,1.8,22.5,13.4,14.5,18.1c-4.6,2.8-12.5,1-17.3,0.1C53.7,61.6,44.3,58.5,35.3,54.8
				c0.1,0-0.1,0.7,0,0.7c9.3,3.7,18.9,7,28.7,8.7c4.5,0.8,13.4,2.8,17.4-0.7c5.1-4.5-4.7-11.8-7.6-14C58.6,38.2,39.3,30.7,21,26.8
				c-4-0.8-21.5-4.9-21.6,3.1c-0.1,4.3,4.9,8,7.9,10.3c8.4,6.5,18.2,11.2,28,15.2C35.2,55.5,35.4,54.8,35.3,54.8z"/>
		</g>
	</g>
	<g class="st3">
		<g>
			<path class="st0" d="M56.2,11.9c1.9-4.6,5.5-8.4,10.4-9.5c8.6-1.8,14,6.9,11.4,14.5c-1.6,4.4-5.3,8.1-9.8,9.3
				C59.3,28.6,53.8,19.7,56.2,11.9c0.1-0.2-0.5-0.7-0.5-0.4C54,16.9,55.1,23.2,60.6,26c7.2,3.7,15.5-1.8,18-8.7
				c1.9-5.3,0.4-11.8-4.9-14.6c-7.4-3.9-15.3,1.9-18,8.7C55.6,11.7,56.1,12.1,56.2,11.9z"/>
		</g>
	</g>
	<g class="st3">
		<g>
			<path class="st0" d="M67.9,72.2C62.3,83,54.9,95.5,44.2,102c-2.7,1.6-6.4,3.3-9.4,1.3c-4.5-3-3.3-10.9-2.5-15.2
				c2.6-14.4,9.8-28.6,18.5-40.2c3.9-5.2,14.1-19,22.3-15.6c5.5,2.3,4.2,11.3,3.4,15.7C75.1,56.4,71.7,64.5,67.9,72.2
				c-0.1,0.2,0.1,0.5,0,0.7c5-10,9.9-21.5,9.3-32.9c-0.2-3.8-1.4-8.5-6-8.7C66,30.9,60.8,36,57.5,39.4C45.4,51.6,36,69.1,32.6,86
				c-1,4.9-3,16.7,3.8,18.7c5.3,1.5,11.3-4.2,14.6-7.5c7-7,12.4-15.5,17-24.3C68,72.7,67.8,72.4,67.9,72.2z"/>
		</g>
	</g>
	<g class="st3">
		<g>
			<path class="st0" d="M40.8,49.3c-7.9-3.3-15.6-7-22.9-11.5C13.3,34.9,8.1,31.5,4.9,27c-6.9-10,15.2-6.5,19-5.8
				c17,3.4,33.8,10.1,48.7,18.9c2.9,1.7,23.6,14.2,14.5,18.5c-5.1,2.4-12.8,0.6-18-0.5C59.4,56.3,50,53,40.8,49.3
				c0.1,0-0.1,0.7,0,0.7c9.6,3.9,19.6,7.3,29.8,9.2c4.7,0.9,13,2.8,17.3-0.2c6-4.1-4.2-11.9-7.1-14.1C65.1,33.1,45.1,25.2,26.1,21
				c-4-0.9-22.6-5.5-22.7,2.7c0,4.6,5.6,8.5,8.8,10.9c8.7,6.5,18.6,11.2,28.5,15.4C40.7,49.9,40.9,49.3,40.8,49.3z"/>
		</g>
	</g>
</g>
<g>
	<path class="st0" d="M82.7,84.1H91c0.1,1.1,0.7,2,1.8,2.5c1.2,0.6,2.8,0.8,4.9,0.8c1.5,0,2.7-0.2,3.8-0.6c1-0.4,1.5-0.9,1.5-1.6
		c0-1-1.7-1.8-5.1-2.3c-1.5-0.2-2.5-0.3-3.3-0.5c-4.3-0.7-7.2-1.6-8.6-2.6c-1.6-1-2.4-2.3-2.4-4c0-2.1,1.2-3.9,3.5-5.3
		c2.4-1.3,5.6-1.9,9.5-1.9c4.2,0,7.6,0.6,10.1,1.9c2.3,1.4,3.6,3.2,3.8,5.4h-5.2c-1.5,0-2.7-0.5-3.5-1.4c-0.3-0.2-0.6-0.4-1-0.7
		c-1-0.5-2.3-0.8-4-0.8c-1.6,0-2.8,0.2-3.6,0.5c-0.7,0.3-1.1,0.8-1.1,1.5c0,0.9,2.1,1.6,6.3,2.3c0.5,0.1,0.9,0.2,1.3,0.3
		c0.4,0.1,0.7,0.1,1,0.1c4.1,0.7,7,1.6,8.6,2.5c1.5,1,2.3,2.3,2.3,4c0,2.5-1.3,4.3-3.9,5.7c-2.4,1.2-6.1,1.8-10.9,1.8
		c-4.6,0-8-0.6-10.3-1.9c-2.3-1.3-3.5-3.1-3.5-5.6V84.1z"/>
	<path class="st0" d="M136.9,84.6h6.1c-0.9,2.3-2.6,4.1-5.1,5.4c-2.5,1.3-5.7,1.9-9.5,1.9c-4.6,0-8.2-1-10.8-3.1
		c-2.6-2-3.9-4.9-3.9-8.6c0-3.6,1.3-6.4,3.8-8.4c2.6-2.1,6.2-3.1,10.8-3.1c4.9,0,8.6,1,11.3,3c1.5,1.2,2.5,2.6,3.2,4.3h-8.5
		c-0.4-0.6-0.8-1-1.2-1.3c-1.1-0.8-2.5-1.2-4.5-1.2c-1.8,0-3.2,0.4-4.4,1.2c-1.5,1.1-2.2,3-2.2,5.5c0,2.6,0.7,4.4,2.2,5.4
		c1.1,0.9,2.6,1.3,4.7,1.3c1.4,0,2.5-0.2,3.5-0.6c0.2-0.1,0.5-0.2,0.7-0.3c0.2-0.1,0.4-0.3,0.7-0.5c0.2-0.2,0.5-0.4,1-0.7
		C135.2,84.7,135.9,84.6,136.9,84.6z"/>
	<path class="st0" d="M146.7,62.7h4.4c1.1,0,2.1,0.3,2.9,0.8c0.8,0.6,1.2,1.2,1.2,2v1.8h-8.5V62.7z M146.7,69.2h4.4
		c1.1,0,2.1,0.3,2.9,0.8c0.8,0.6,1.2,1.2,1.2,2v19.4h-8.5V69.2z"/>
	<path class="st0" d="M179.8,84.6h6.1c-0.9,2.3-2.6,4.1-5.1,5.4c-2.5,1.3-5.7,1.9-9.5,1.9c-4.6,0-8.2-1-10.8-3.1
		c-2.6-2-3.9-4.9-3.9-8.6c0-3.6,1.3-6.4,3.8-8.4c2.6-2.1,6.2-3.1,10.8-3.1c4.9,0,8.6,1,11.3,3c2.6,2.1,3.9,4.9,3.9,8.6
		c0,0.2,0,0.4,0,0.6s0,0.3,0,0.3c0,0.3,0,0.5-0.1,0.6h-21c0.1,1.7,0.7,3,1.8,3.8c1.1,0.9,2.6,1.3,4.7,1.3c1.4,0,2.5-0.2,3.5-0.6
		c0.2-0.1,0.5-0.2,0.7-0.3c0.2-0.1,0.4-0.3,0.7-0.5c0.1-0.2,0.4-0.4,0.9-0.7C178.1,84.7,178.8,84.6,179.8,84.6z M165.2,78.1h12.4
		c-0.2-1.5-0.7-2.6-1.7-3.3c-1.1-0.8-2.5-1.2-4.5-1.2c-1.8,0-3.2,0.4-4.4,1.2C165.9,75.5,165.3,76.6,165.2,78.1z"/>
	<path class="st0" d="M217.5,91.4h-4.2c-1.2,0-2.2-0.3-3-0.8c-0.8-0.5-1.2-1.2-1.2-2V77.2c0-1.3-0.6-2.3-1.8-2.9
		c-1.2-0.6-2.5-0.9-3.9-0.9c-1.5,0-2.8,0.3-3.9,0.9c-1.1,0.6-1.7,1.6-1.7,2.9v14.2h-8.5v-13c0-3.8,1.4-6.3,4.3-7.6
		c2.9-1.3,6-2,9.5-2.1c3.6,0,6.8,0.6,9.8,1.9c3,1.3,4.5,3.9,4.5,7.8V91.4z"/>
	<path class="st0" d="M243.1,84.6h6.1c-0.9,2.3-2.6,4.1-5.1,5.4c-2.5,1.3-5.7,1.9-9.5,1.9c-4.6,0-8.2-1-10.8-3.1
		c-2.6-2-3.9-4.9-3.9-8.6c0-3.6,1.3-6.4,3.8-8.4c2.6-2.1,6.2-3.1,10.8-3.1c4.9,0,8.6,1,11.3,3c1.5,1.2,2.5,2.6,3.2,4.3h-8.5
		c-0.4-0.6-0.8-1-1.2-1.3c-1.1-0.8-2.5-1.2-4.5-1.2c-1.8,0-3.2,0.4-4.4,1.2c-1.5,1.1-2.2,3-2.2,5.5c0,2.6,0.7,4.4,2.2,5.4
		c1.1,0.9,2.6,1.3,4.7,1.3c1.4,0,2.5-0.2,3.5-0.6c0.2-0.1,0.5-0.2,0.7-0.3c0.2-0.1,0.4-0.3,0.7-0.5c0.2-0.2,0.5-0.4,1-0.7
		C241.4,84.7,242.1,84.6,243.1,84.6z"/>
	<path class="st0" d="M274.6,84.6h6.1c-0.9,2.3-2.6,4.1-5.1,5.4c-2.5,1.3-5.7,1.9-9.5,1.9c-4.6,0-8.2-1-10.8-3.1
		c-2.6-2-3.9-4.9-3.9-8.6c0-3.6,1.3-6.4,3.8-8.4c2.6-2.1,6.2-3.1,10.8-3.1c4.9,0,8.6,1,11.3,3c2.6,2.1,3.9,4.9,3.9,8.6
		c0,0.2,0,0.4,0,0.6s0,0.3,0,0.3c0,0.3,0,0.5-0.1,0.6h-21c0.1,1.7,0.7,3,1.8,3.8c1.1,0.9,2.6,1.3,4.7,1.3c1.4,0,2.5-0.2,3.5-0.6
		c0.2-0.1,0.5-0.2,0.7-0.3c0.2-0.1,0.4-0.3,0.7-0.5c0.1-0.2,0.4-0.4,0.9-0.7C272.9,84.7,273.7,84.6,274.6,84.6z M260.1,78.1h12.4
		c-0.2-1.5-0.7-2.6-1.7-3.3c-1.1-0.8-2.5-1.2-4.5-1.2c-1.8,0-3.2,0.4-4.4,1.2C260.8,75.5,260.2,76.6,260.1,78.1z"/>
	<path class="st0" d="M283.5,84.1h8.2c0.1,1.1,0.7,2,1.8,2.5c1.2,0.6,2.8,0.8,4.9,0.8c1.5,0,2.7-0.2,3.8-0.6c1-0.4,1.5-0.9,1.5-1.6
		c0-1-1.7-1.8-5.1-2.3c-1.5-0.2-2.5-0.3-3.3-0.5c-4.3-0.7-7.2-1.6-8.6-2.6c-1.6-1-2.4-2.3-2.4-4c0-2.1,1.2-3.9,3.5-5.3
		c2.4-1.3,5.6-1.9,9.5-1.9c4.2,0,7.6,0.6,10.1,1.9c2.3,1.4,3.6,3.2,3.8,5.4h-5.2c-1.5,0-2.7-0.5-3.5-1.4c-0.3-0.2-0.6-0.4-1-0.7
		c-1-0.5-2.3-0.8-4-0.8c-1.6,0-2.8,0.2-3.6,0.5c-0.7,0.3-1.1,0.8-1.1,1.5c0,0.9,2.1,1.6,6.3,2.3c0.5,0.1,0.9,0.2,1.3,0.3
		c0.4,0.1,0.7,0.1,1,0.1c4.1,0.7,7,1.6,8.6,2.5c1.5,1,2.3,2.3,2.3,4c0,2.5-1.3,4.3-3.9,5.7c-2.4,1.2-6.1,1.8-10.9,1.8
		c-4.6,0-8-0.6-10.3-1.9c-2.3-1.3-3.5-3.1-3.5-5.6V84.1z"/>
	<path class="st0" d="M315.2,82.7v-2.4c0-1.5,1.1-2.3,3.3-2.3H332v4.7H315.2z"/>
	<path class="st0" d="M362.6,69.2v13c0,4-1.5,6.6-4.5,7.8c-3,1.2-6.3,1.8-9.8,1.8c-3.5-0.1-6.7-0.8-9.5-2c-2.9-1.2-4.3-3.8-4.3-7.6
		v-13h8.5v14.2c0,1.3,0.6,2.3,1.7,2.9c1.1,0.6,2.4,0.9,3.9,0.9c1.5,0,2.8-0.3,3.9-0.9c1.2-0.6,1.8-1.6,1.8-2.9V72
		c0-0.8,0.4-1.4,1.2-2c0.8-0.6,1.8-0.8,3-0.8H362.6z"/>
</g>
<g>
	<path class="st0" d="M304.4,103.6v-8.4c0-0.3,0.2-0.5,0.5-0.7c0.3-0.2,0.8-0.3,1.3-0.3h1.7v7.7h8.3v1.8H304.4z"/>
	<path class="st0" d="M325.4,103.6h-3.5v-3.5l-6.2-5.9h4.3l3.6,4.1l2.9-3.5c0.3-0.4,0.9-0.5,1.6-0.5h2.8l-5.6,5.9V103.6z"/>
	<path class="st0" d="M330.7,98.9c0-1.5,0.7-2.8,2.2-3.6c1.6-0.9,3.6-1.3,6.1-1.3c2.5,0,4.5,0.4,6.1,1.3c1.5,0.9,2.2,2.1,2.2,3.6
		c0,1.5-0.7,2.7-2.2,3.6c-1.5,0.9-3.6,1.3-6.1,1.3c-2.6,0-4.6-0.4-6.1-1.3C331.4,101.7,330.7,100.5,330.7,98.9z M334.2,98.9
		c0,1.1,0.4,1.9,1.2,2.4c0.8,0.6,2,0.8,3.5,0.8c1.5,0,2.7-0.3,3.5-0.8c0.9-0.6,1.3-1.4,1.3-2.4c0-1-0.4-1.8-1.3-2.4
		c-0.9-0.6-2-0.8-3.5-0.8c-1.5,0-2.7,0.3-3.5,0.8C334.6,97,334.2,97.9,334.2,98.9z"/>
	<path class="st0" d="M348.2,103.6v-8.4c0-0.3,0.2-0.5,0.5-0.7c0.3-0.2,0.8-0.3,1.3-0.3h1.9l6.9,6.5v-6.5h3.5v9.5h-3.6l-7-6.5v6.5
		H348.2z"/>
</g>
<g>
	<defs>
		<path id="SVGID_7_" d="M108.8,53.6c0,28.2-22.9,51.1-51.1,51.1c-28.2,0-51.1-22.9-51.1-51.1c0-28.2,22.9-51.1,51.1-51.1
			C85.9,2.5,108.8,25.4,108.8,53.6z"/>
	</defs>
	<clipPath id="SVGID_2_">
		<use xlink:href="#SVGID_7_"  style="overflow:visible;"/>
	</clipPath>
	<g class="st4">
		<path class="st5" d="M82.7,84.1H91c0.1,1.1,0.7,2,1.8,2.5c1.2,0.6,2.8,0.8,4.9,0.8c1.5,0,2.7-0.2,3.8-0.6c1-0.4,1.5-0.9,1.5-1.6
			c0-1-1.7-1.8-5.1-2.3c-1.5-0.2-2.5-0.3-3.3-0.5c-4.3-0.7-7.2-1.6-8.6-2.6c-1.6-1-2.4-2.3-2.4-4c0-2.1,1.2-3.9,3.5-5.3
			c2.4-1.3,5.6-1.9,9.5-1.9c4.2,0,7.6,0.6,10.1,1.9c2.3,1.4,3.6,3.2,3.8,5.4h-5.2c-1.5,0-2.7-0.5-3.5-1.4c-0.3-0.2-0.6-0.4-1-0.7
			c-1-0.5-2.3-0.8-4-0.8c-1.6,0-2.8,0.2-3.6,0.5c-0.7,0.3-1.1,0.8-1.1,1.5c0,0.9,2.1,1.6,6.3,2.3c0.5,0.1,0.9,0.2,1.3,0.3
			c0.4,0.1,0.7,0.1,1,0.1c4.1,0.7,7,1.6,8.6,2.5c1.5,1,2.3,2.3,2.3,4c0,2.5-1.3,4.3-3.9,5.7c-2.4,1.2-6.1,1.8-10.9,1.8
			c-4.6,0-8-0.6-10.3-1.9c-2.3-1.3-3.5-3.1-3.5-5.6V84.1z"/>
	</g>
</g>
<g>
	<path class="st0" d="M82.6,84.1h8.2c0.1,1.1,0.7,2,1.8,2.5c1.2,0.6,2.8,0.8,4.9,0.8c1.5,0,2.7-0.2,3.8-0.6c1-0.4,1.5-0.9,1.5-1.6
		c0-1-1.7-1.8-5.1-2.3c-1.5-0.2-2.5-0.3-3.3-0.5c-4.3-0.7-7.2-1.6-8.6-2.6c-1.6-1-2.4-2.3-2.4-4c0-2.1,1.2-3.9,3.5-5.3
		c2.4-1.3,5.6-1.9,9.5-1.9c4.2,0,7.6,0.6,10.1,1.9c2.3,1.4,3.6,3.2,3.8,5.4H105c-1.5,0-2.7-0.5-3.5-1.4c-0.3-0.2-0.6-0.4-1-0.7
		c-1-0.5-2.3-0.8-4-0.8c-1.6,0-2.8,0.2-3.6,0.5c-0.7,0.3-1.1,0.8-1.1,1.5c0,0.9,2.1,1.6,6.3,2.3c0.5,0.1,0.9,0.2,1.3,0.3
		c0.4,0.1,0.7,0.1,1,0.1c4.1,0.7,7,1.6,8.6,2.5c1.5,1,2.3,2.3,2.3,4c0,2.5-1.3,4.3-3.9,5.7c-2.4,1.2-6.1,1.8-10.9,1.8
		c-4.6,0-8-0.6-10.3-1.9c-2.3-1.3-3.5-3.1-3.5-5.6V84.1z"/>
</g>
</svg>
